<?xml version="1.0" encoding="UTF-8" standalone="no"?>
<svg width="137px" height="35px" viewBox="0 0 137 35" version="1.1" xmlns="http://www.w3.org/2000/svg" xmlns:xlink="http://www.w3.org/1999/xlink" xmlns:sketch="http://www.bohemiancoding.com/sketch/ns">
    <!-- Generator: Sketch 3.3.3 (12081) - http://www.bohemiancoding.com/sketch -->
    <title>ESSENTIAL NORDIC WALKING_Final</title>
    <desc>Created with Sketch.</desc>
    <defs></defs>
    <g id="Design-3" stroke="none" stroke-width="1" fill="none" fill-rule="evenodd" sketch:type="MSPage">
        <g id="Products-Copy-2" sketch:type="MSArtboardGroup" transform="translate(-32.000000, -14.000000)">
            <g id="Group-Copy" sketch:type="MSLayerGroup" transform="translate(0.050000, -1.000000)">
                <g id="ESSENTIAL-NORDIC-WALKING_Final" transform="translate(24.000000, 8.000000)" sketch:type="MSShapeGroup">
                    <g id="Group" transform="translate(8.000000, 16.666667)" fill="#000000">
                        <path d="M3.23896226,7.62390289 L0.00752830189,7.62390289 L0.00752830189,0.575536881 L3.23896226,0.566199813 L3.26656604,1.82521008 L1.216,1.82521008 L1.216,3.27469655 L3.12030189,3.27469655 L3.12030189,4.49561158 L1.216,4.49561158 L1.216,6.32679739 L3.26656604,6.32679739 L3.23896226,7.62390289 L3.23896226,7.62390289 Z" id="Shape"></path>
                        <path d="M10.4510755,5.51633987 C10.4510755,6.13295985 10.2176981,6.66554622 9.7509434,7.11372549 C9.28383019,7.56190476 8.7514717,7.7859944 8.15315094,7.7859944 C7.51216981,7.7859944 6.97515094,7.59215686 6.54173585,7.20410831 C6.24884906,6.92436975 5.98033962,6.6573296 5.73620755,6.40298786 L6.50516981,5.60149393 C6.9690566,6.18674136 7.53367925,6.52698413 8.19903774,6.62222222 C8.51020755,6.62222222 8.76330189,6.5124183 8.95903774,6.29318394 C9.1540566,6.07394958 9.25192453,5.80205415 9.25192453,5.47787115 C9.25192453,5.0898226 8.98664151,4.76563959 8.45535849,4.50494865 C7.961,4.26330532 7.46664151,4.02502334 6.97228302,3.78972923 C6.44135849,3.4270775 6.17571698,2.92511671 6.17571698,2.28272642 C6.17571698,1.71690009 6.40766038,1.25602241 6.87154717,0.899719888 C7.29277358,0.581886088 7.78103774,0.422782446 8.33633962,0.422782446 C9.16624528,0.422782446 9.7889434,0.673762838 10.203717,1.17609711 L9.50824528,2.01568627 C9.12358491,1.71055089 8.721,1.55779645 8.29977358,1.55779645 C8.07392453,1.55779645 7.86958491,1.62128852 7.68639623,1.74864613 C7.47883019,1.88870215 7.37522642,2.07320261 7.37522642,2.30177404 C7.37522642,2.58151261 7.53690566,2.81045752 7.86062264,2.98823529 C7.89718868,3.00728291 8.16856604,3.11223156 8.67511321,3.30308123 C8.9984717,3.42408964 9.30067925,3.589169 9.58137736,3.79906629 C9.92301887,4.05340803 10.1488679,4.31409897 10.2589245,4.58113912 C10.3015849,4.67637722 10.3474717,4.83548086 10.3962264,5.05807656 C10.4327925,5.21718021 10.4510755,5.36993464 10.4510755,5.51633987 L10.4510755,5.51633987 Z" id="Shape"></path>
                        <path d="M17.6079811,5.51633987 C17.6079811,6.13295985 17.3746038,6.66554622 16.9078491,7.11372549 C16.4407358,7.56190476 15.9083774,7.7859944 15.3100566,7.7859944 C14.6690755,7.7859944 14.1320566,7.59215686 13.6986415,7.20410831 C13.4057547,6.92436975 13.1372453,6.6573296 12.8931132,6.40298786 L13.6620755,5.60149393 C14.1259623,6.18674136 14.6905849,6.52698413 15.3559434,6.62222222 C15.6671132,6.62222222 15.9202075,6.5124183 16.1159434,6.29318394 C16.3109623,6.07394958 16.4088302,5.80205415 16.4088302,5.47787115 C16.4088302,5.0898226 16.1431887,4.76563959 15.6122642,4.50494865 C15.1179057,4.26330532 14.6235472,4.02502334 14.1291887,3.78972923 C13.5982642,3.4270775 13.3326226,2.92511671 13.3326226,2.28272642 C13.3326226,1.71690009 13.564566,1.25602241 14.0284528,0.899719888 C14.4496792,0.581886088 14.9379434,0.422782446 15.4932453,0.422782446 C16.3231509,0.422782446 16.9458491,0.673762838 17.3606226,1.17609711 L16.6651509,2.01568627 C16.2804906,1.71055089 15.8779057,1.55779645 15.4566792,1.55779645 C15.2308302,1.55779645 15.0264906,1.62128852 14.8433019,1.74864613 C14.6357358,1.88870215 14.5321321,2.07320261 14.5321321,2.30177404 C14.5321321,2.58151261 14.6938113,2.81045752 15.0175283,2.98823529 C15.0540943,3.00728291 15.3254717,3.11223156 15.8320189,3.30308123 C16.1553774,3.42408964 16.4575849,3.589169 16.738283,3.79906629 C17.0799245,4.05340803 17.3057736,4.31409897 17.4158302,4.58113912 C17.4584906,4.67637722 17.5043774,4.83548086 17.5531321,5.05807656 C17.5896981,5.21718021 17.6079811,5.36993464 17.6079811,5.51633987 L17.6079811,5.51633987 Z" id="Shape"></path>
                        <path d="M23.3918679,7.62390289 L20.160434,7.62390289 L20.160434,0.575536881 L23.3918679,0.566199813 L23.4194717,1.82521008 L21.3689057,1.82521008 L21.3689057,3.27469655 L23.2732075,3.27469655 L23.2732075,4.49561158 L21.3689057,4.49561158 L21.3689057,6.32679739 L23.4194717,6.32679739 L23.3918679,7.62390289 L23.3918679,7.62390289 Z" id="Shape"></path>
                        <path d="M31.2722075,7.73856209 L27.3539057,3.65639589 L27.3539057,7.70046685 L26.0357358,7.70046685 L26.0357358,0.337254902 L29.9174717,4.38132586 L29.9174717,0.490009337 L31.2722075,0.490009337 L31.2722075,7.73856209 L31.2722075,7.73856209 Z" id="Shape"></path>
                        <path d="M37.8616226,1.67245565 L36.497566,1.70121382 L36.497566,7.62390289 L35.3073774,7.62390289 L35.3073774,1.70121382 L33.9067547,1.67245565 L33.9433208,0.566199813 L37.8616226,0.566199813 L37.8616226,1.67245565 L37.8616226,1.67245565 Z" id="Shape"></path>
                        <path d="M41.8146981,7.62390289 L40.6155472,7.62390289 L40.6155472,0.575536881 L41.8146981,0.575536881 L41.8146981,7.62390289 L41.8146981,7.62390289 Z" id="Shape"></path>
                        <path d="M51.1232642,7.62390289 L49.8323396,7.62390289 L49.3838679,6.70812325 L45.8685094,6.70812325 L45.465566,7.62390289 L44.1563585,7.62390289 L47.6351509,0.270401494 L51.1232642,7.62390289 L51.1232642,7.62390289 Z M48.8712264,5.60186741 L47.6355094,2.90270775 L46.3080189,5.60186741 L48.8712264,5.60186741 L48.8712264,5.60186741 Z" id="Shape"></path>
                        <path d="M56.7056792,7.62390289 L53.4738868,7.62390289 L53.4738868,0.575536881 L54.6730377,0.575536881 L54.6730377,6.49859944 L56.7053208,6.49859944 L56.7053208,7.62390289 L56.7056792,7.62390289 Z" id="Shape"></path>
                    </g>
                    <g id="Group" transform="translate(8.000000, 26.470588)" fill="#88A13E">
                        <path d="M8.8512426,12.317591 L2.23313609,5.52955182 L2.23313609,12.2542297 L0.00674556213,12.2542297 L0.00674556213,0.0101960784 L6.56307692,6.73487395 L6.56307692,0.264005602 L8.85159763,0.264005602 L8.85159763,12.317591 L8.8512426,12.317591 Z" id="Shape"></path>
                        <path d="M23.160355,6.25893557 C23.160355,7.97187675 22.5418935,9.4229972 21.3046154,10.6126611 C20.0676923,11.8019608 18.6088757,12.3966106 16.9285207,12.3966106 C15.2378698,12.3966106 13.7790533,11.807423 12.552426,10.6283193 C11.3254438,9.44957983 10.7123077,7.9929972 10.7123077,6.25893557 C10.7123077,4.5459944 11.3360947,3.09232493 12.5833136,1.89719888 C13.799645,0.744677871 15.2481657,0.168235294 16.9285207,0.168235294 C18.6085207,0.168235294 20.0623669,0.744677871 21.2889941,1.89719888 C22.536568,3.09268908 23.160355,4.5459944 23.160355,6.25893557 L23.160355,6.25893557 Z M21.1345562,6.25893557 C21.1345562,5.07473389 20.7248521,4.07551821 19.9054438,3.26128852 C19.0856805,2.44742297 18.0933728,2.03994398 16.9288757,2.03994398 C15.7640237,2.03994398 14.771716,2.44414566 13.9523077,3.25327731 C13.1328994,4.06204482 12.7231953,5.06380952 12.7231953,6.25857143 C12.7231953,7.43221289 13.1378698,8.42633053 13.967929,9.24019608 C14.7976331,10.0544258 15.7846154,10.4615406 16.9288757,10.4615406 C18.0731361,10.4615406 19.0601183,10.0518768 19.8901775,9.23254902 C20.7195266,8.41358543 21.1345562,7.42238095 21.1345562,6.25893557 L21.1345562,6.25893557 Z" id="Shape"></path>
                        <path d="M29.8153846,4.00669468 C29.4852071,2.90733894 28.5575148,2.37859944 27.0319527,2.42084034 L27.0319527,7.43257703 L27.047574,12.1271429 L25.0217751,12.1271429 L25.0217751,0.4067507 L27.3564497,0.4067507 C28.7687574,0.4067507 29.856213,0.718823529 30.6191716,1.34260504 C31.5262722,2.14627451 32.0005917,3.28823529 32.0417751,4.76848739 C32.0002367,5.86820728 31.6498225,6.75635854 30.9901775,7.43294118 L30.2481657,8.19436975 L32.9694675,12.127507 L30.5265089,12.127507 L27.3411834,7.43294118 C28.5781065,7.26397759 29.3822485,6.6929972 29.7532544,5.72 C30.0007101,5.12789916 30.0216568,4.55691877 29.8153846,4.00669468 L29.8153846,4.00669468 Z" id="Shape"></path>
                        <path d="M44.279645,6.11619048 C44.279645,8.03014006 43.6508876,9.53151261 42.3933728,10.6203081 C41.207929,11.624986 39.6614201,12.1271429 37.7545562,12.1271429 L34.955858,12.1271429 L34.955858,0.4067507 L37.6153846,0.4067507 C39.4711243,0.4067507 41.0119527,0.872128852 42.2389349,1.80252101 C43.5990533,2.83851541 44.279645,4.27652661 44.279645,6.11619048 L44.279645,6.11619048 Z M42.2385799,6.24327731 C42.2385799,3.60030812 40.4857988,2.27845938 36.9809467,2.27845938 L36.9809467,10.2561625 L37.5376331,10.2561625 C38.8984615,10.2561625 39.996213,9.94445378 40.8312426,9.32030812 C41.7692308,8.6222409 42.2385799,7.59680672 42.2385799,6.24327731 L42.2385799,6.24327731 Z" id="Shape"></path>
                        <path d="M48.3830769,12.1271429 L46.3572781,12.1271429 L46.3572781,0.4067507 L48.3830769,0.4067507 L48.3830769,12.1271429 L48.3830769,12.1271429 Z" id="Shape"></path>
                        <path d="M59.7699408,11.4611204 C58.6668639,12.084902 57.5794083,12.3966106 56.5072189,12.3966106 C54.8062722,12.3966106 53.339645,11.7833894 52.1080473,10.5569468 C50.8760947,9.3305042 50.2601183,7.8502521 50.2601183,6.11619048 C50.2601183,4.45641457 50.9094675,3.03915966 52.2085207,1.86588235 C53.4557396,0.734481793 54.8989349,0.16859944 56.5381065,0.16859944 C57.1977515,0.16859944 57.7544379,0.226862745 58.2081657,0.34302521 C58.620355,0.448991597 59.1408284,0.660196078 59.7699408,0.977366947 L58.6100592,2.35711485 C58.2390533,2.12478992 57.5123077,2.00826331 56.4298225,2.00826331 C55.3473373,2.00826331 54.3859172,2.41829132 53.5459172,3.2372549 C52.7055621,4.05658263 52.2859172,5.02156863 52.2859172,6.13184874 C52.2859172,7.32697479 52.6878107,8.35240896 53.4919527,9.20887955 C54.2960947,10.0653501 55.2752663,10.4935854 56.4298225,10.4935854 C57.419645,10.4935854 58.1460355,10.2769188 58.6100592,9.84322129 L59.7699408,11.4611204 L59.7699408,11.4611204 Z" id="Shape"></path>
                    </g>
                    <g id="Group" transform="translate(86.000000, 26.470588)" fill="#000000">
                        <path d="M11.8302108,12.1443083 L9.64756627,12.1443083 L8.88909639,10.6641068 L2.94466867,10.6641068 L2.26368072,12.1443083 L0.0497590361,12.1443083 L5.93234337,0.255964052 L11.8302108,12.1443083 L11.8302108,12.1443083 Z M8.02186747,8.87554466 L5.93234337,4.51176471 L3.68785542,8.87554466 L8.02186747,8.87554466 L8.02186747,8.87554466 Z" id="Shape"></path>
                        <path d="M18.7559578,12.1443083 L13.2913494,12.1443083 L13.2913494,0.749482571 L15.3193855,0.749482571 L15.3193855,10.3249455 L18.7559578,10.3249455 L18.7559578,12.1443083 L18.7559578,12.1443083 Z" id="Shape"></path>
                        <path d="M29.9851506,12.1443083 L27.2761265,12.1443083 L23.112006,7.24098584 L22.8951988,7.45694444 L22.8951988,12.1443083 L20.8671627,12.1443083 L20.8671627,0.749482571 L22.8951988,0.749482571 L22.8951988,5.00528322 L27.2761265,0.749482571 L29.9851506,0.749482571 L24.5671024,5.89956427 L29.9851506,12.1443083 L29.9851506,12.1443083 Z" id="Shape"></path>
                        <path d="M34.1553133,12.1443083 L32.1272771,12.1443083 L32.1272771,0.749482571 L34.1553133,0.749482571 L34.1553133,12.1443083 L34.1553133,12.1443083 Z" id="Shape"></path>
                        <path d="M45.1829819,12.3294662 L38.5575663,5.72998366 L38.5575663,12.2678649 L36.3287169,12.2678649 L36.3287169,0.363943355 L42.8922892,6.90182462 L42.8922892,0.610702614 L45.1833373,0.610702614 L45.1833373,12.3294662 L45.1829819,12.3294662 Z" id="Shape"></path>
                        <path d="M58.9043916,6.87102397 C58.9043916,8.02233115 58.5973072,9.05539216 57.983494,9.97020697 C57.3693253,10.8850218 56.5205783,11.5534314 55.4368976,11.9747277 C54.6937108,12.2625545 54.0073916,12.4062908 53.3779398,12.4062908 C52.5729096,12.4062908 51.9640723,12.3393791 51.5514277,12.2059096 C50.2822169,11.7948802 49.2372771,11.0492919 48.4166084,9.97020697 C47.5962952,8.89076797 47.1861386,7.68812636 47.1861386,6.36228214 C47.1861386,4.7995915 47.7999518,3.43515795 49.0282892,2.26827342 C50.2562711,1.10174292 51.6545,0.518300654 53.2233313,0.518300654 C54.3791627,0.518300654 55.3544398,0.708769063 56.1491627,1.08899782 L56.721747,1.35098039 L55.3750542,2.81595861 C54.7971386,2.49768519 54.1058434,2.33801743 53.3008133,2.33801743 C52.237747,2.33801743 51.2884157,2.7288671 50.4524639,3.50985839 C49.616512,4.2912037 49.1985361,5.20601852 49.1985361,6.25430283 L49.2294578,6.30068083 C49.2294578,7.39038671 49.6008735,8.36184641 50.3440602,9.21470588 C51.1181687,10.1089869 52.0468855,10.5564815 53.1302108,10.5564815 C53.9661627,10.5564815 54.7246325,10.3252996 55.4056205,9.8625817 C56.1385,9.35915033 56.5767349,8.71658497 56.7213916,7.93523965 L53.7959157,7.93523965 L53.7959157,6.08472222 L58.9043916,6.08472222 L58.9043916,6.87102397 L58.9043916,6.87102397 Z" id="Shape"></path>
                    </g>
                    <path d="M71.6845184,13.9487842 L77.5535549,28.4338591 L79.4380669,23.9683837 L81.2689616,23.9683837 L78.4688304,30.6667706 L79.2225665,32.4638056 L79.4380669,32.4092341 L80.1381857,34.0432498 L79.9226852,34.1520452 L80.8922654,36.6025474 L86.115488,23.9687313 L88,23.9687313 L81.9690804,38.3995823 L82.4536986,39.0530496 L81.5380794,39.4343547 L80.8919217,39.7065169 L80.5148819,39.8702313 L80.0842246,37.6373197 L78.7919093,34.6421456 L78.5767525,34.6960219 L77.8766338,33.0627014 L78.0921342,32.953906 L77.8230164,32.3000912 L75.1304636,38.8893352 L76.0997001,40.3596365 L74.2151881,41.1764706 L73.7845309,38.9439067 L72.4922155,35.8941611 L72.2770587,36.0029564 L71.57694,34.3150644 L71.7924405,34.2608405 L63.9842435,16.0179813 L61.2380733,15.3099426 L61.184456,15.0923519 C60.9692992,14.3843132 60.8074161,13.0773787 61.5071911,12.5330543 C61.6690742,12.424259 61.8845747,12.3151161 62.0457704,12.1520968 C61.9921531,11.7704442 61.884231,11.2803437 61.9381921,11.0081816 C61.9381921,10.8993862 61.9921531,10.8448147 61.9921531,10.7360194 L61.7766526,10.1913475 L61.884231,10.1371236 C61.83027,9.70124704 61.7766526,9.2111466 62.2069662,9.15657513 C62.530045,9.10235126 64.2533613,9.42908488 63.8227041,10.0825521 C63.7690867,10.1371236 63.7690867,10.1913475 63.7690867,10.3001428 L65.7611771,15.0923519 L65.3305199,15.2553711 L72.9228727,33.7710877 L73.1383732,33.6622923 L73.8384919,35.3501844 L73.5693741,35.4589797 L74.1615708,36.8204857 L76.8537799,30.0682224 L70.3378983,14.7106992 L67.5917281,14.0026605 L67.5377671,13.8392937 C67.3226103,13.0766835 67.1607272,11.769749 67.8608459,11.2796485 C68.022729,11.1708532 68.2375421,11.0074864 68.3994252,10.898691 C68.3454642,10.5173859 68.2918468,9.97271402 68.2918468,9.70055186 C68.2918468,9.59175652 68.3454642,9.53718505 68.3454642,9.42838971 L68.1299637,8.8837178 L68.2918468,8.82949392 C68.1842685,8.39361736 68.1299637,7.90351692 68.5609646,7.84894545 C68.8840435,7.79472157 70.6070161,8.1214552 70.1763589,8.77492245 C70.1763589,8.82949392 70.1223978,8.93863685 70.1223978,8.99286073 L72.1148319,13.7850698 L71.6845184,13.9487842 L71.6845184,13.9487842 Z" id="Shape" fill="#000000"></path>
                    <rect id="Rectangle-path" x="0" y="0" width="152" height="50"></rect>
                </g>
            </g>
        </g>
    </g>
</svg>